<svg width="35" height="34" viewBox="0 0 35 34" fill="none" xmlns="http://www.w3.org/2000/svg">
<rect x="0.205078" width="34" height="34" rx="17" fill="#89A36B"/>
<path d="M17.2051 10.0361C19.4581 10.0361 19.7653 10.0361 20.687 10.0361C21.5063 10.0361 21.9159 10.241 22.2232 10.3434C22.6328 10.5482 22.94 10.6506 23.2472 10.9578C23.5545 11.2651 23.7593 11.5723 23.8617 11.9819C23.9641 12.2892 24.0665 12.6988 24.1689 13.5181C24.1689 14.4398 24.1689 14.6446 24.1689 17C24.1689 19.3554 24.1689 19.5602 24.1689 20.4819C24.1689 21.3012 23.9641 21.7108 23.8617 22.0181C23.6569 22.4277 23.5545 22.7349 23.2472 23.0422C22.94 23.3494 22.6328 23.5542 22.2232 23.6566C21.9159 23.759 21.5063 23.8614 20.687 23.9639C19.7653 23.9639 19.5605 23.9639 17.2051 23.9639C14.8497 23.9639 14.6448 23.9639 13.7232 23.9639C12.9039 23.9639 12.4942 23.759 12.187 23.6566C11.7774 23.4518 11.4701 23.3494 11.1629 23.0422C10.8557 22.7349 10.6509 22.4277 10.5485 22.0181C10.446 21.7108 10.3436 21.3012 10.2412 20.4819C10.2412 19.5602 10.2412 19.3554 10.2412 17C10.2412 14.6446 10.2412 14.4398 10.2412 13.5181C10.2412 12.6988 10.446 12.2892 10.5485 11.9819C10.7533 11.5723 10.8557 11.2651 11.1629 10.9578C11.4701 10.6506 11.7774 10.4458 12.187 10.3434C12.4942 10.241 12.9039 10.1386 13.7232 10.0361C14.6448 10.0361 14.9521 10.0361 17.2051 10.0361ZM17.2051 8.5C14.8497 8.5 14.6448 8.5 13.7232 8.5C12.8015 8.5 12.187 8.70482 11.675 8.90964C11.1629 9.11446 10.6509 9.42169 10.1388 9.93374C9.62677 10.4458 9.42195 10.8554 9.11472 11.4699C8.9099 11.9819 8.80749 12.5964 8.70508 13.5181C8.70508 14.4398 8.70508 14.747 8.70508 17C8.70508 19.3554 8.70508 19.5602 8.70508 20.4819C8.70508 21.4036 8.9099 22.0181 9.11472 22.5301C9.31954 23.0422 9.62677 23.5542 10.1388 24.0663C10.6509 24.5783 11.0605 24.7831 11.675 25.0904C12.187 25.2952 12.8015 25.3976 13.7232 25.5C14.6448 25.5 14.9521 25.5 17.2051 25.5C19.4581 25.5 19.7653 25.5 20.687 25.5C21.6087 25.5 22.2232 25.2952 22.7352 25.0904C23.2472 24.8855 23.7593 24.5783 24.2713 24.0663C24.7834 23.5542 24.9882 23.1446 25.2954 22.5301C25.5003 22.0181 25.6027 21.4036 25.7051 20.4819C25.7051 19.5602 25.7051 19.253 25.7051 17C25.7051 14.747 25.7051 14.4398 25.7051 13.5181C25.7051 12.5964 25.5003 11.9819 25.2954 11.4699C25.0906 10.9578 24.7834 10.4458 24.2713 9.93374C23.7593 9.42169 23.3497 9.21687 22.7352 8.90964C22.2232 8.70482 21.6087 8.60241 20.687 8.5C19.7653 8.5 19.5605 8.5 17.2051 8.5Z" fill="white"/>
<path d="M17.2051 12.5964C14.7472 12.5964 12.8015 14.5422 12.8015 17C12.8015 19.4578 14.7472 21.4036 17.2051 21.4036C19.6629 21.4036 21.6087 19.4578 21.6087 17C21.6087 14.5422 19.6629 12.5964 17.2051 12.5964ZM17.2051 19.8675C15.6689 19.8675 14.3376 18.6386 14.3376 17C14.3376 15.4639 15.5665 14.1325 17.2051 14.1325C18.7412 14.1325 20.0725 15.3614 20.0725 17C20.0725 18.5361 18.7412 19.8675 17.2051 19.8675Z" fill="white"/>
<path d="M21.7111 13.5181C22.2767 13.5181 22.7352 13.0596 22.7352 12.494C22.7352 11.9284 22.2767 11.4699 21.7111 11.4699C21.1455 11.4699 20.687 11.9284 20.687 12.494C20.687 13.0596 21.1455 13.5181 21.7111 13.5181Z" fill="white"/>
</svg>
