<svg width="34" height="34" viewBox="0 0 34 34" fill="none" xmlns="http://www.w3.org/2000/svg">
<rect width="34" height="34" rx="17" fill="#0059AB"/>
<path d="M16.5 9.53614C18.753 9.53614 19.0602 9.53614 19.9819 9.53614C20.8012 9.53614 21.2108 9.74096 21.5181 9.84337C21.9277 10.0482 22.2349 10.1506 22.5422 10.4578C22.8494 10.7651 23.0542 11.0723 23.1566 11.4819C23.259 11.7892 23.3614 12.1988 23.4639 13.0181C23.4639 13.9398 23.4639 14.1446 23.4639 16.5C23.4639 18.8554 23.4639 19.0602 23.4639 19.9819C23.4639 20.8012 23.259 21.2108 23.1566 21.5181C22.9518 21.9277 22.8494 22.2349 22.5422 22.5422C22.2349 22.8494 21.9277 23.0542 21.5181 23.1566C21.2108 23.259 20.8012 23.3614 19.9819 23.4639C19.0602 23.4639 18.8554 23.4639 16.5 23.4639C14.1446 23.4639 13.9398 23.4639 13.0181 23.4639C12.1988 23.4639 11.7892 23.259 11.4819 23.1566C11.0723 22.9518 10.7651 22.8494 10.4578 22.5422C10.1506 22.2349 9.94578 21.9277 9.84337 21.5181C9.74096 21.2108 9.63855 20.8012 9.53614 19.9819C9.53614 19.0602 9.53614 18.8554 9.53614 16.5C9.53614 14.1446 9.53614 13.9398 9.53614 13.0181C9.53614 12.1988 9.74096 11.7892 9.84337 11.4819C10.0482 11.0723 10.1506 10.7651 10.4578 10.4578C10.7651 10.1506 11.0723 9.94578 11.4819 9.84337C11.7892 9.74096 12.1988 9.63855 13.0181 9.53614C13.9398 9.53614 14.247 9.53614 16.5 9.53614ZM16.5 8C14.1446 8 13.9398 8 13.0181 8C12.0964 8 11.4819 8.20482 10.9699 8.40964C10.4578 8.61446 9.94578 8.92169 9.43374 9.43374C8.92169 9.94578 8.71687 10.3554 8.40964 10.9699C8.20482 11.4819 8.10241 12.0964 8 13.0181C8 13.9398 8 14.247 8 16.5C8 18.8554 8 19.0602 8 19.9819C8 20.9036 8.20482 21.5181 8.40964 22.0301C8.61446 22.5422 8.92169 23.0542 9.43374 23.5663C9.94578 24.0783 10.3554 24.2831 10.9699 24.5904C11.4819 24.7952 12.0964 24.8976 13.0181 25C13.9398 25 14.247 25 16.5 25C18.753 25 19.0602 25 19.9819 25C20.9036 25 21.5181 24.7952 22.0301 24.5904C22.5422 24.3855 23.0542 24.0783 23.5663 23.5663C24.0783 23.0542 24.2831 22.6446 24.5904 22.0301C24.7952 21.5181 24.8976 20.9036 25 19.9819C25 19.0602 25 18.753 25 16.5C25 14.247 25 13.9398 25 13.0181C25 12.0964 24.7952 11.4819 24.5904 10.9699C24.3855 10.4578 24.0783 9.94578 23.5663 9.43374C23.0542 8.92169 22.6446 8.71687 22.0301 8.40964C21.5181 8.20482 20.9036 8.10241 19.9819 8C19.0602 8 18.8554 8 16.5 8Z" fill="white"/>
<path d="M16.5 12.0964C14.0422 12.0964 12.0964 14.0422 12.0964 16.5C12.0964 18.9578 14.0422 20.9036 16.5 20.9036C18.9578 20.9036 20.9036 18.9578 20.9036 16.5C20.9036 14.0422 18.9578 12.0964 16.5 12.0964ZM16.5 19.3675C14.9639 19.3675 13.6325 18.1386 13.6325 16.5C13.6325 14.9639 14.8614 13.6325 16.5 13.6325C18.0361 13.6325 19.3675 14.8614 19.3675 16.5C19.3675 18.0361 18.0361 19.3675 16.5 19.3675Z" fill="white"/>
<path d="M21.006 13.0181C21.5716 13.0181 22.0301 12.5596 22.0301 11.994C22.0301 11.4284 21.5716 10.9699 21.006 10.9699C20.4404 10.9699 19.9819 11.4284 19.9819 11.994C19.9819 12.5596 20.4404 13.0181 21.006 13.0181Z" fill="white"/>
</svg>
