<svg width="423" height="100" viewBox="0 0 423 100" fill="none" xmlns="http://www.w3.org/2000/svg">
<path d="M324.227 1.28052C327.8 4.9033 333.16 8.87346 336.911 10.6104C350.847 16.9627 352.931 18.3522 364.127 28.8235C368.534 32.9426 372.524 35.0269 374.846 34.3818C375.621 34.1833 377.169 33.5381 378.3 32.8929C383.005 30.2131 387.948 31.8508 405.516 41.7266C411.054 44.8531 416.354 47.6322 417.307 47.9299C418.915 48.3766 420.344 47.8803 432.195 42.868C442.141 38.6993 446.905 36.3668 451.609 33.3396C455.063 31.156 458.637 29.2205 459.47 29.022C461.674 28.5754 463.222 29.3694 471.202 34.878C481.803 42.2725 487.341 45.3493 498.715 50.0639C504.492 52.446 511.519 55.7214 514.318 57.3094C523.668 62.6692 525.454 63.4632 528.134 63.4632C532.779 63.4632 536.531 61.8255 543.856 56.5154C546.596 54.5303 548.561 54.6296 553.027 56.8628C556.898 58.8479 558.447 59.5427 568.273 63.4136C571.727 64.7535 577.742 67.5822 581.672 69.6666C585.602 71.8005 594.952 76.1677 602.396 79.3935C622.882 88.3263 633.602 93.6861 624.252 90.4603C615.081 87.2842 599.18 80.6342 584.947 74.0338C567.32 65.8949 551.598 59.2945 551.598 60.0886C551.598 60.4359 553.265 62.0736 555.231 63.761C559.697 67.5326 559.638 68.3266 554.873 71.3539C551.479 73.4879 550.228 74.9767 549.514 77.7558C548.978 79.989 549.871 79.7409 552.551 77.061C554.635 74.8774 554.814 74.8278 555.588 75.6715C556.124 76.267 556.362 77.3091 556.184 78.4506C556.005 79.6912 556.303 81.0312 557.315 82.8177C558.089 84.2073 558.982 86.2916 559.34 87.4331C559.697 88.5745 560.174 89.964 560.352 90.5099C560.531 91.1055 558.744 89.964 555.945 87.7804C552.372 85.0013 549.454 83.314 544.392 81.0808C536.293 77.5077 535.221 76.8129 530.993 72.0983C525.812 66.3416 520.69 63.2151 505.862 56.565C490.199 49.5676 485.495 46.987 471.976 38.2527C467.212 35.1758 463.163 32.7441 462.984 32.8929C462.686 33.1907 466.557 38.0542 469.237 40.7836C470.13 41.7266 470.607 42.868 470.607 44.1583C470.607 45.9449 470.19 46.5404 466.2 50.0143C462.805 52.9423 461.614 54.4311 461.138 56.0688C460.721 57.2598 460.066 58.7983 459.53 59.493C457.624 62.1233 456.731 63.9595 457.148 64.3069C457.565 64.7039 462.508 60.6345 463.877 58.7486C464.592 57.7561 464.651 57.8057 465.783 58.9471C468.582 61.9248 469.058 67.483 466.736 70.8576C465.247 73.0412 464.771 74.8774 465.783 74.8774C466.14 74.8774 466.855 74.1826 467.45 73.3886C468.701 71.602 470.666 71.0561 472.274 71.999C472.87 72.3464 474.835 74.0834 476.562 75.87C478.348 77.6565 482.219 81.1801 485.197 83.711C488.175 86.242 490.438 88.2271 490.259 88.1775C490.08 88.0782 487.4 86.9864 484.304 85.6465C481.207 84.3562 475.133 82.1726 470.904 80.783C466.617 79.4431 461.495 77.3588 459.411 76.267C455.242 73.9841 449.882 69.7162 445.714 65.2994C444.225 63.7113 441.366 61.4285 439.461 60.1878C435.649 57.8057 434.28 57.1606 417.724 49.8654C406.588 44.9523 400.037 41.6769 391.819 36.9127C386.28 33.687 384.613 33.4885 380.682 35.6721C378.539 36.8631 377.348 37.1609 374.846 37.1609C369.606 37.1609 367.343 35.8706 359.184 28.1287C352.633 21.8757 348.643 19.0966 342.331 16.1686C332.207 11.5037 330.599 10.6104 326.966 8.07942C323.155 5.39957 322.142 5.15143 322.559 7.03725C322.738 7.63278 323.036 12.0496 323.214 16.8634C323.691 26.9377 323.869 26.5407 317.557 29.2205C312.733 31.2552 308.326 34.3818 305.408 37.8556C302.311 41.4288 299.572 45.9945 300.287 46.3419C300.584 46.4908 302.073 45.3493 303.681 43.7613C308.207 39.3445 308.505 39.146 310.589 39.146C312.912 39.146 318.867 41.9251 321.249 44.1087C324.584 47.1359 322.381 51.5527 316.783 53.0415C314.996 53.4882 314.579 53.8356 314.579 54.8281C314.579 56.7635 313.746 57.6568 309.398 60.3863C304.396 63.6121 302.907 65.3987 301.18 70.2621C300.465 72.3961 299.632 74.53 299.393 74.9767C298.5 76.8625 300.406 75.7707 301.954 73.5871C304.813 69.5673 305.825 68.7237 307.433 69.1703C309.279 69.6666 316.187 75.1256 317.378 77.0114C318.093 78.2024 318.152 78.8476 317.557 80.9319C316.247 85.3984 316.961 87.6812 321.13 92.9913C323.214 95.5719 324.763 97.8547 324.584 97.954C324.286 98.2021 318.807 96.2667 303.264 90.5596C299.81 89.2693 292.366 86.7879 286.649 85.0013C266.878 78.8972 261.697 75.8203 256.218 66.9371C252.466 60.833 250.739 59.5427 236.625 52.9919C222.809 46.4907 210.005 39.6422 208.874 38.1038C208.635 37.8556 208.278 37.6571 207.921 37.6571C206.73 37.6571 207.504 39.6422 210.065 42.9176C211.494 44.8034 212.745 46.8878 212.745 47.5329C212.745 49.3195 210.303 51.652 206.73 53.24C198.928 56.7139 197.499 57.8057 194.879 62.1233C193.45 64.3565 191.663 66.9371 190.889 67.8304C188.507 70.5102 189.876 70.3117 193.271 67.5326C198.214 63.4632 200.715 64.3565 201.37 70.2621C201.846 74.4804 202.204 74.927 207.028 78.6491C210.005 80.9319 210.958 82.0237 210.958 83.0163C210.958 83.9592 212.03 85.2991 214.531 87.5323C218.521 91.1055 219.117 92.3461 216.139 90.8573C209.231 87.3338 201.668 84.3562 195.772 82.8177C192.378 81.9245 181.003 77.3091 176.418 74.927C168.795 71.0065 160.517 67.4334 154.383 65.4483C137.113 59.8404 133.897 58.699 126.989 55.6718C120.319 52.7934 107.575 45.9449 104.597 43.7116C102.275 41.9747 97.332 38.6497 97.0938 38.6497C96.9151 38.6497 96.6173 39.7415 96.4387 41.0814C95.9622 44.3072 94.8307 46.0441 90.9598 49.5676C87.3271 52.843 85.8979 54.8777 85.8979 56.7635C85.8979 57.6072 84.8259 58.9968 82.6821 60.9322C79.8235 63.5128 77.5605 67.086 78.3347 67.7808C78.5134 67.88 79.6449 66.8875 80.8954 65.4979C83.6349 62.421 87.1485 60.3863 89.7688 60.3367C91.1385 60.2871 92.925 60.9818 95.7836 62.5203C97.987 63.7113 101.858 65.4483 104.3 66.3416C109.6 68.277 110.91 69.1207 110.91 70.9073C110.91 72.8923 109.719 73.8849 104.895 75.8203L100.488 77.6069V79.6912C100.429 81.5274 100.131 81.9741 97.332 84.0584C94.3543 86.2916 91.3767 90.0137 92.0913 90.6588C92.27 90.8077 92.925 90.5596 93.5206 90.1129C95.1285 88.9219 95.6049 89.0211 99.1185 91.5025C100.846 92.7432 105.729 95.2245 110.017 97.0111C114.245 98.7977 117.103 100.138 116.27 99.9887C115.436 99.8398 112.339 99.5917 109.421 99.4428C103.049 99.0954 97.8679 98.1525 93.2228 96.5148C90.9598 95.7704 87.9227 95.2245 84.5282 95.026C77.9178 94.5794 75.6548 93.9342 70.5333 90.8077C65.0545 87.4827 61.541 86.1924 58.3251 86.3909C55.8239 86.5398 55.8239 86.5398 55.6452 88.6241L55.4666 90.7084L53.68 89.0211C51.7744 87.2346 50.1069 86.639 44.4494 85.7954C42.4246 85.4976 38.0177 84.3562 34.6232 83.2148C27.6556 80.8823 26.941 80.8327 9.37299 81.5274L0.440125 81.8252L10.2663 77.7558C15.6855 75.4729 28.132 70.411 37.8986 66.4408C64.2208 55.8206 77.8583 48.724 88.5778 40.1385C93.1633 36.4165 95.188 35.1758 96.6173 35.1758C96.9746 35.1758 99.1781 36.8135 101.62 38.7986C106.324 42.6695 108.885 44.1583 124.488 52.2971C136.398 58.4509 139.971 59.9893 142.413 59.9893C143.366 59.9893 146.105 59.0464 148.547 57.905C155.098 54.8281 163.316 51.9497 173.202 49.3195C185.112 46.193 189.579 44.2079 203.752 36.0194C206.968 34.1336 210.779 35.6224 222.392 43.265C228.526 47.2352 233.945 50.0639 235.553 50.0639C238.412 50.0639 246.094 45.8952 251.871 41.2303C259.076 35.3743 261.935 33.8359 272.357 30.1635C281.23 27.037 286.649 24.7045 292.247 21.6276C296.416 19.2951 305.23 13.191 306.778 11.5533C309.279 8.87346 317.14 2.07455 318.927 1.03239C321.368 -0.406799 322.619 -0.35717 324.227 1.28052Z" fill="#E02222" fill-opacity="0.2"/>
</svg>
