<svg width="35" height="34" viewBox="0 0 35 34" fill="none" xmlns="http://www.w3.org/2000/svg">
<rect x="0.205078" width="34" height="34" rx="17" fill="#E02222"/>
<path d="M23.9429 10.253C22.2636 8.57959 20.0246 7.6499 17.6612 7.6499C12.7478 7.6499 8.76727 11.6166 8.76727 16.5129C8.76727 18.0624 9.20264 19.6119 9.94898 20.9134L8.70508 25.4999L13.4319 24.2603C14.738 24.9421 16.1685 25.314 17.6612 25.314C22.5746 25.314 26.5551 21.3473 26.5551 16.4509C26.4929 14.1577 25.6222 11.9265 23.9429 10.253ZM21.9526 19.6739C21.7661 20.1697 20.8953 20.6655 20.46 20.7275C20.0868 20.7895 19.5892 20.7895 19.0917 20.6655C18.7807 20.5416 18.3453 20.4176 17.8478 20.1697C15.6087 19.24 14.1783 17.0088 14.0539 16.8228C13.9295 16.6989 13.1209 15.6452 13.1209 14.5296C13.1209 13.414 13.6807 12.9181 13.8673 12.6702C14.0539 12.4223 14.3026 12.4223 14.4892 12.4223C14.6136 12.4223 14.8002 12.4223 14.9246 12.4223C15.049 12.4223 15.2356 12.3603 15.4222 12.7942C15.6087 13.228 16.0441 14.3437 16.1063 14.4056C16.1685 14.5296 16.1685 14.6535 16.1063 14.7775C16.0441 14.9015 15.9819 15.0254 15.8575 15.1494C15.7331 15.2733 15.6087 15.4593 15.5465 15.5213C15.4221 15.6452 15.2978 15.7692 15.4222 15.9551C15.5465 16.203 15.9819 16.8848 16.6661 17.5046C17.5368 18.2483 18.2209 18.4963 18.4697 18.6202C18.7185 18.7442 18.8429 18.6822 18.9673 18.5582C19.0917 18.4343 19.527 17.9384 19.6514 17.6905C19.7758 17.4426 19.9624 17.5046 20.149 17.5666C20.3356 17.6285 21.4551 18.1864 21.6417 18.3103C21.8904 18.4343 22.0148 18.4963 22.077 18.5582C22.1392 18.7442 22.1392 19.178 21.9526 19.6739Z" fill="white"/>
</svg>
