<svg width="34" height="34" viewBox="0 0 34 34" fill="none" xmlns="http://www.w3.org/2000/svg">
<rect width="34" height="34" rx="17" fill="#0059AB"/>
<path d="M23.3659 10.625C21.6725 8.9375 19.4146 8 17.0314 8C12.0767 8 8.06272 12 8.06272 16.9375C8.06272 18.5 8.50174 20.0625 9.25436 21.375L8 26L12.7666 24.75C14.0836 25.4375 15.5261 25.8125 17.0314 25.8125C21.9861 25.8125 26 21.8125 26 16.875C25.9373 14.5625 25.0592 12.3125 23.3659 10.625ZM21.3589 20.125C21.1707 20.625 20.2927 21.125 19.8537 21.1875C19.4773 21.25 18.9756 21.25 18.4739 21.125C18.1603 21 17.7213 20.875 17.2195 20.625C14.9617 19.6875 13.5192 17.4375 13.3937 17.25C13.2683 17.125 12.453 16.0625 12.453 14.9375C12.453 13.8125 13.0174 13.3125 13.2056 13.0625C13.3937 12.8125 13.6446 12.8125 13.8328 12.8125C13.9582 12.8125 14.1463 12.8125 14.2718 12.8125C14.3972 12.8125 14.5854 12.75 14.7735 13.1875C14.9617 13.625 15.4007 14.75 15.4634 14.8125C15.5261 14.9375 15.5261 15.0625 15.4634 15.1875C15.4007 15.3125 15.338 15.4375 15.2125 15.5625C15.0871 15.6875 14.9617 15.875 14.899 15.9375C14.7735 16.0625 14.6481 16.1875 14.7735 16.375C14.899 16.625 15.338 17.3125 16.0279 17.9375C16.9059 18.6875 17.5958 18.9375 17.8467 19.0625C18.0976 19.1875 18.223 19.125 18.3484 19C18.4739 18.875 18.9129 18.375 19.0383 18.125C19.1638 17.875 19.3519 17.9375 19.5401 18C19.7282 18.0625 20.8571 18.625 21.0453 18.75C21.2962 18.875 21.4216 18.9375 21.4843 19C21.547 19.1875 21.547 19.625 21.3589 20.125Z" fill="white"/>
</svg>
